PathFileType	4	(X/Y/Z)	D:\TRACE\v60_Jaco2_6-2-23\v60_baseline_3-platform.trc
DataRate	CameraRate	NumFrames	NumMarkers	Units	OrigDataRate	OrigDataStartFrame	OrigNumFrames
100.00	100.00	      24	5	mm	100.00	1626	      6500
Frame#	Time	Left_Front			Right_Front			Left_Aft			Right_Aft			Post			
		X1	Y1	Z1	X2	Y2	Z2	X3	Y3	Z3	X4	Y4	Z4	X5	Y5	Z5	

1626	16.250	-800.64600	8.86203	-638.74133	769.40533	10.24341	-644.41577	-708.51453	7.87248	496.12143	733.51935	7.02043	505.86642	-14.11205	1308.12891	-961.50952	
1627	16.260	-800.64191	8.74396	-638.82556	769.28271	10.17746	-644.39819	-708.53625	7.86304	496.05161	733.45398	6.97324	505.83649	-14.12365	1308.06592	-961.39539	
1628	16.270	-800.55066	8.70337	-638.90674	769.38159	10.14107	-644.38098	-708.47205	7.74359	496.08374	733.42975	6.96863	505.87604	-14.07752	1308.05127	-961.43829	
1629	16.280	-800.53241	8.81574	-638.90167	769.39966	10.17167	-644.40094	-708.51349	7.80066	496.05258	733.36914	6.88979	505.90222	-14.06860	1308.06873	-961.67072	
1630	16.290	-800.51263	8.93602	-638.77393	769.36157	10.15704	-644.43768	-708.45569	7.78840	496.08908	733.44641	6.94578	505.87314	-13.96972	1308.11047	-961.88330	
1631	16.300	-800.58795	8.89121	-638.72974	769.36890	10.22594	-644.42114	-708.42957	7.83761	496.11169	733.45886	6.92726	505.85361	-13.96456	1308.15552	-962.11292	
1632	16.310	-800.65649	8.85328	-638.68488	769.43634	10.29566	-644.36365	-708.44232	7.78292	496.07663	733.48328	6.92730	505.86310	-13.98308	1308.22754	-962.16199	
1633	16.320	-800.62402	8.78825	-638.80585	769.42981	10.24191	-644.38281	-708.50922	7.80013	496.04883	733.47626	6.92191	505.86819	-13.97883	1308.22327	-962.16504	
1634	16.330	-800.57306	8.76681	-638.82941	769.40875	10.15849	-644.36401	-708.52155	7.78900	495.94861	733.42273	6.88670	505.93839	-14.00980	1308.18506	-962.06982	
1635	16.340	-800.51764	8.77936	-638.85358	769.34271	10.14500	-644.41144	-708.53174	7.87060	495.96387	733.57001	7.01637	505.97504	-13.96166	1308.06226	-961.80829	
1636	16.350	-800.60144	8.77185	-638.76141	769.28021	10.16359	-644.43561	-708.30054	7.46156	496.07971	733.84637	7.23440	505.99484	-13.93468	1308.01294	-961.59967	
1637	16.360	-800.62915	8.85643	-638.69989	769.36658	10.20614	-644.42889	-708.32019	7.49298	496.08084	733.23138	6.86612	505.56451	-13.95692	1308.09399	-961.59961	
1638	16.370	-800.60364	8.89000	-638.78839	769.43665	10.24353	-644.40356	-708.55457	7.86653	495.91855	733.73175	7.15170	505.92120	-14.05310	1308.08752	-961.58069	
1639	16.380	-800.63495	8.82112	-638.81140	769.39423	10.22128	-644.36682	-708.58533	7.84860	495.97400	733.54407	6.97796	505.91473	-14.07184	1308.10242	-961.60925	
1640	16.390	-800.53082	8.66746	-638.94489	769.41315	10.18428	-644.37311	-708.49750	7.77709	496.03482	733.44464	6.91894	505.88531	-14.11278	1308.14832	-961.79803	
1641	16.400	-800.50964	8.72370	-638.88293	769.26605	10.19452	-644.43713	-708.46259	7.75745	496.06921	733.44568	6.94175	505.87643	-14.05532	1308.16650	-961.83740	
1642	16.410	-800.54156	8.88847	-638.70685	769.37738	10.22951	-644.38904	-708.48865	7.86480	496.07993	733.48975	6.96428	505.84177	-14.05155	1308.20081	-962.01007	
1643	16.420	-800.55365	8.98222	-638.75146	769.34119	10.30319	-644.44116	-708.50964	7.85634	496.10165	733.53632	6.97702	505.82657	-14.08613	1308.32483	-962.08191	
1644	16.430	-800.55939	8.89541	-638.83789	769.33173	10.30335	-644.46576	-708.54260	7.84932	496.07190	733.50879	6.96697	505.82788	-14.06250	1308.32190	-962.00000	
1645	16.440	-800.54492	8.71303	-638.89136	769.38367	10.19823	-644.39600	-708.53711	7.83751	496.07501	733.44110	6.93102	505.87958	-14.05485	1308.17871	-961.79926	
1646	16.450	-800.53369	8.71752	-638.93066	769.36646	10.13465	-644.38318	-708.45630	7.80331	496.07938	733.48480	6.95348	505.89478	-14.04334	1308.10364	-961.76019	
1647	16.460	-800.53448	8.76174	-638.87085	769.36438	10.13640	-644.36957	-708.49261	7.82412	496.09772	733.47687	6.95908	505.86240	-14.06164	1308.09839	-961.74103	
1648	16.470	-800.63483	8.85998	-638.75836	769.39771	10.24083	-644.38409	-708.52197	7.88003	496.11127	733.47931	6.93897	505.84180	-14.11553	1308.13904	-961.78711	
1649	16.480	-800.64746	8.81313	-638.76874	769.38806	10.23119	-644.43420	-708.50586	7.82886	496.08786	733.44995	6.92215	505.84937	-14.01732	1308.17273	-961.79932	
